<svg id="Layer_1" enable-background="new 0 0 512 512" height="512" viewBox="0 0 512 512" width="512" xmlns="http://www.w3.org/2000/svg"><g><path d="m510 192.301c-12.43-39.864-79.366-52.928-149.506-29.18-10.306 3.489-20.105 7.581-29.288 12.147-2.214 1.101-4.746-.696-4.434-3.148 1.345-10.569 2.06-21.609 2.06-32.969 0-76.851-32.608-139.151-72.832-139.151s-72.832 62.3-72.832 139.15c0 11.36.715 22.4 2.06 32.969.312 2.453-2.22 4.249-4.434 3.148-9.183-4.566-18.982-8.658-29.288-12.147-70.14-23.748-137.076-10.684-149.506 29.18s34.353 91.432 104.493 115.18c10.382 3.515 20.692 6.221 30.766 8.154 2.375.456 3.327 3.32 1.696 5.105-7.088 7.758-13.929 16.29-20.369 25.526-43.347 62.175-52.108 132.549-19.566 157.186s94.063-5.792 137.412-67.966c6.365-9.129 11.981-18.434 16.832-27.746 1.157-2.222 4.314-2.222 5.472 0 4.851 9.311 10.467 18.617 16.832 27.746 43.349 62.174 104.871 92.603 137.412 67.966 32.542-24.637 23.781-95.011-19.568-157.185-6.44-9.236-13.281-17.769-20.369-25.526-1.631-1.785-.679-4.649 1.696-5.105 10.075-1.934 20.385-4.639 30.766-8.154 70.141-23.748 116.924-75.316 104.495-115.18z" fill="#5f99d7"/><g fill="#3c87d0"><path d="m297.927 139.15c0 11.36-.582 11.746-.715 22.4-.184 14.688 22.295 17.072 33.044 14.012-1.923.279-3.751-1.337-3.483-3.442 1.345-10.569 2.06-21.609 2.06-32.969-.001-76.851-32.609-139.151-72.833-139.151-5.303 0-10.472 1.093-15.453 3.149 32.801 13.541 57.38 69.283 57.38 136.001z"/><path d="m227.83 407.74c-6.641 5.983-15.939 18.617-22.304 27.746-27.947 40.083-63.445 66.966-93.864 74.411 34.155 10.567 86.53-19.567 124.769-74.411 6.365-9.129 11.981-18.434 16.832-27.746-6.364-9.129-18.791-5.982-25.433 0z"/><path d="m374.74 315.635c10.075-1.934 20.385-4.639 30.766-8.154 70.14-23.748 116.923-75.316 104.493-115.18s-79.366-52.928-149.506-29.18c-10.306 3.489-20.105 7.581-29.288 12.147 70.14-23.748 135.458-22.831 147.888 17.033s-34.353 91.432-104.493 115.18c-10.382 3.515-20.692 6.221-30.766 8.154-2.375.456-3.327 3.32-1.696 5.105 7.087 7.758 13.929 16.29 20.369 25.526 43.349 62.174 52.11 132.548 19.568 157.185-4.734 3.584-9.901 5.404-15.404 5.726 17.852 5.005 34.116 3.506 46.31-5.726 32.542-24.637 23.781-95.011-19.568-157.185-6.44-9.236-13.281-17.769-20.369-25.526-1.632-1.785-.679-4.649 1.696-5.105z"/></g><path d="m338.414 274.543c0 10.476-11.994 18.492-15.771 27.602-3.916 9.444-1.251 23.557-8.367 30.674-7.117 7.117-21.23 4.451-30.674 8.367-9.11 3.778-17.126 15.771-27.602 15.771s-18.492-11.994-27.602-15.771c-9.444-3.916-23.557-1.251-30.674-8.367-7.117-7.117-4.451-21.23-8.367-30.674-3.778-9.11-15.771-17.126-15.771-27.602s11.994-18.492 15.771-27.602c3.916-9.444 1.251-23.557 8.367-30.674 7.117-7.117 21.23-4.451 30.674-8.367 9.11-3.778 17.126-15.771 27.602-15.771s18.492 11.994 27.602 15.771c9.444 3.916 23.557 1.251 30.674 8.367 7.117 7.117 4.451 21.23 8.367 30.674 3.778 9.11 15.771 17.126 15.771 27.602z" fill="#f3f0f3"/><circle cx="256" cy="274.543" fill="#ffd15b" r="44.298"/><path d="m256 230.245c-5.436 0-10.641.984-15.453 2.775 16.844 6.271 28.845 22.493 28.845 41.522s-12.001 35.251-28.845 41.522c4.812 1.792 10.017 2.775 15.453 2.775 24.465 0 44.298-19.833 44.298-44.298 0-24.463-19.833-44.296-44.298-44.296z" fill="#ffc344"/></g></svg>