<svg id="Layer_1" enable-background="new 0 0 464.008 464.008" height="512" viewBox="0 0 464.008 464.008" width="512" xmlns="http://www.w3.org/2000/svg"><path d="m452.144 166.377c-30.136-12.69-96.822-77.652-154.762-2.787-.078-.057-.156-.114-.234-.171 53.209-78.196-29.147-121.529-50.524-146.262-7.76-8.958-21.712-8.865-29.37 0-21.383 24.74-103.779 68.091-50.479 146.329l-.147.107c-57.94-74.87-124.628-9.907-154.764 2.784-10.857 4.573-15.171 17.843-9.08 27.94 16.923 27.979 32.694 119.733 123.571 93.221l.068.208c-89.476 32.15-47.411 116.325-45.048 148.532.38 5.2 3.01 9.97 7.23 13.04l.91.67c4.5 3.26 10.19 4.29 15.61 3.03 31.864-7.422 123.921 5.892 126.81-88.664h.139c2.889 94.556 94.946 81.242 126.81 88.664 5.42 1.26 11.11.23 15.61-3.03l.91-.67c4.22-3.07 6.85-7.84 7.23-13.04 2.362-32.206 44.427-116.38-45.045-148.53l.068-.208c90.874 26.51 106.644-65.243 123.567-93.222 6.111-10.13 1.752-23.379-9.08-27.941z" fill="#ff6d7a"/><g fill="#ff8c95"><path d="m455.17 167.978c9.469 6.146.186 20.496-9.474 14.655-34.948-21.13-89.81-54.769-138.042 11.593l-24.89 34.25c-4.06-8.29-10.09-15.43-17.48-20.83l29.37-40.42c58.552-80.566 126.88-13.74 157.49-.85 1.073.452 2.083.99 3.026 1.602z"/><path d="m363.028 440.013c8.691.882 7.754 14.061-.963 13.478-1.044-.07-2.107-.225-3.181-.475-32.37-7.54-126.855 6.32-126.875-93.25v-49.93c7.42 0 14.51-1.43 21-4.03v42.96c.017 82.95 64.044 86.581 110.019 91.247z"/><path d="m188.624 289.547-29.82 9.7c-67.928 22.081-68.067 69.197-53.242 134.946 3.632 16.109-22.683 22.678-24.188 2.084-2.4-32.72-45.78-119.08 49.43-150.03l47.45-15.43c2.25 6.921 5.804 13.262 10.37 18.73z"/><path d="m198.724 207.647c-3.48 2.54-6.65 5.47-9.46 8.72l-13.91-19.14c-58.556-80.563-126.88-13.74-157.49-.85-.831.351-1.631.757-2.394 1.213-4.204 2.51-9.861 1.4-12.686-3.273-6.096-10.084-1.786-23.364 9.08-27.94 30.61-12.89 98.929-79.709 157.49.85z"/><path d="m247.507 18.15c4.532 4.974 5.01 12.915-.253 19.007-21.72 25.13-106.39 69.46-47.86 150.05l10.3 14.19c-5.803 2.495-10.87 6.085-10.87 6.19-.133.044 1.424 2.105-29.43-40.38-58.528-80.591 26.14-124.92 47.86-150.05 7.675-8.885 21.621-8.946 29.37 0 .284.327.578.658.883.993z"/><path d="m319.824 281.817c26.889 8.713 54.18-13.08 51.08-41.18-2.28-20.65-8.77-40.65-19.07-58.71-13.64-23.92-47.06-26.08-64.17-5.08-3.739 5.146-3.314 4.671-3.483 4.547.074-.102 2.294-3.161 2.153-2.967 16.49-22.88 4.18-55.49-23.48-61.21-20.36-4.21-41.38-4.2-61.73.01-27.68 5.74-39.981 38.421-23.38 61.3 2.391 3.295 2.129 2.838 1.97 2.953-.075-.102-2.321-3.187-2.18-2.993-16.67-22.73-51.46-21.08-65.44 3.44-10.3 18.06-16.79 38.06-19.07 58.71-3.1 28.1 24.18 49.89 51.08 41.18l3.349-1.086c.063.196.417.016-3.269 1.216-26.89 8.759-36.14 42.44-17.1 63.36 13.99 15.38 31.01 27.73 49.94 36.28 25.77 11.63 54.931-7.58 54.951-35.86v-3.537c.1 0 .056-.272.057 3.537.01 28.28 29.181 47.49 54.951 35.86 18.93-8.55 35.95-20.9 49.94-36.28 19.04-20.92 9.79-54.6-17.1-63.36l-3.311-1.078c.055-.164-.328-.232 3.312.948z"/></g><path d="m263.135 117.276c6.517 1.396 5.286 11.146-1.374 10.896-12.262-.461-24.566.561-36.637 3.055-47.313 9.811-27.965 51.31-19.645 65.718 1.518 2.629.672 6.028-1.949 7.56-1.621.947-3.191 1.973-4.706 3.073l-21.08-29.05c-16.6-22.88-4.3-55.56 23.38-61.3 20.896-4.324 42.531-4.125 62.011.048z" fill="#ffa8af"/><path d="m331.075 182.087c-11.982-1.141-23.777 3.165-32.411 13.759l-13.129 18.067c-2.974 4.093-8.902 4.383-12.368.697-2.404-2.556-5.043-4.889-7.883-6.964l22.38-30.8c10.137-12.442 30.296-20.211 48.384-9.534 7.317 4.32 3.486 15.581-4.973 14.775z" fill="#ffa8af"/><path d="m130.353 270.229c5.733 4.91 1.458 14.193-5.972 12.858-18.031-3.239-33.735-20.897-31.357-42.451 2.28-20.65 8.77-40.65 19.07-58.71 3.559-6.243 8.467-11.002 14.081-14.254 6.584-3.814 13.845 3.465 10.036 10.051-9.859 17.044-16.818 37.457-19.187 58.913-1.501 13.582 4.102 25.692 13.329 33.593z" fill="#ffa8af"/><path d="m158.079 351.176c5.234 8.059-5.02 17.244-12.531 11.252-7.254-5.786-13.675-11.858-18.463-17.122-19.04-20.92-9.79-54.6 17.1-63.36l34.08-11.1c1.027 3.148 2.321 6.178 3.858 9.059 2.48 4.647.07 10.409-4.938 12.041-23.619 7.695-36.629 32.251-19.106 59.23z" fill="#ffa8af"/><path d="m258.452 352.714c5.713 14.738-15.557 24.511-22.436 10.28-2.583-5.344-3.979-11.27-3.983-17.268-.002-3.67.004 13.294-.024-35.89 3.173 0 6.289-.262 9.318-.765 7.565-1.257 14.48 4.484 14.482 12.153.005 17.746-.672 22.94 2.643 31.49z" fill="#ffa8af"/><path d="m178.166 243.838c-1.786 0 .372.534-34.685-10.863-4.202-1.366-6.501-5.879-5.135-10.082 1.366-4.201 5.876-6.502 10.082-5.135l32.21 10.47c4.202 1.366 6.501 5.879 5.135 10.082-1.099 3.379-4.235 5.528-7.607 5.528z" fill="#ff6d7a"/><path d="m178.818 334.527c-6.436 0-10.34-7.371-6.465-12.703l19.91-27.4c2.596-3.575 7.6-4.367 11.174-1.769 3.574 2.597 4.366 7.6 1.769 11.174l-19.91 27.4c-1.565 2.155-4.005 3.298-6.478 3.298z" fill="#ff6d7a"/><path d="m285.753 243.838c-3.372 0-6.508-2.148-7.607-5.529-1.366-4.202.934-8.715 5.135-10.082l32.21-10.47c4.206-1.363 8.716.934 10.082 5.135 1.366 4.202-.934 8.716-5.135 10.082-34.833 11.325-32.879 10.864-34.685 10.864z" fill="#ff6d7a"/><path d="m285.1 334.527c-2.474 0-4.914-1.144-6.479-3.299l-19.9-27.4c-2.596-3.575-1.803-8.578 1.772-11.174 3.575-2.595 8.578-1.803 11.174 1.772l19.9 27.4c3.864 5.321-.013 12.701-6.467 12.701z" fill="#ff6d7a"/><path d="m232.004 204.577c-4.418 0-8-3.582-8-8v-34c0-4.418 3.582-8 8-8s8 3.582 8 8v34c0 4.418-3.581 8-8 8z" fill="#ff6d7a"/><path d="m232.009 309.837c-31.15 0-56.515-25.248-56.515-56.51 0-31.371 25.454-56.51 56.51-56.51 31.148 0 56.51 25.231 56.51 56.51 0 31.321-25.426 56.51-56.505 56.51z" fill="#ffe773"/><path d="m238.022 221.958c-18.78 9.016-31.531 28.4-32.56 49.189-.689 13.917-19.699 17.534-25.274 4.764-16.265-37.252 11.123-79.094 51.817-79.094 14.861 0 18.442 19.176 6.017 25.141z" fill="#fff0a6"/></svg>