<svg id="Capa_1" enable-background="new 0 0 512 512" height="512" viewBox="0 0 512 512" width="512" xmlns="http://www.w3.org/2000/svg"><g><g><path d="m196.778 512c-3.236 0-6.428-.471-9.533-1.418-15.24-4.646-25.673-19.666-29.376-42.292-3.07-18.761-1.361-41.615 4.812-64.352 9.096-33.495 25.912-60.473 44.986-72.167 3.352-2.055 7.373-2.711 11.205-1.83l30.452 7.01c3.951.91 7.366 3.381 9.466 6.85 12.019 19.849 13.505 54.205 3.877 89.658-9.334 34.376-27.335 62.473-46.976 73.327-6.266 3.462-12.672 5.214-18.913 5.214z" fill="#8cbcff"/></g><g><path d="m106.325 459.915c-9.099 0-17.162-2.822-23.538-8.284-12.07-10.34-16.047-28.234-11.197-50.386 4.071-18.595 14.07-39.004 28.156-57.468 22.987-30.13 51.536-48.701 74.756-48.701.298 0 .592.003.887.009 3.968.082 7.741 1.732 10.494 4.591l20.965 21.763c2.344 2.433 3.798 5.585 4.126 8.947 2.226 22.769-9.228 53.741-29.892 80.828-21.331 27.96-47.448 46.067-69.863 48.438-1.662.176-3.294.263-4.894.263z" fill="#9ee2f8"/></g><g><path d="m70.772 357.595c-16.627 0-31.424-3.312-42.532-9.843-10.114-5.946-16.754-14.378-19.2-24.382-7.261-29.69 24.997-62.439 75.033-76.177 32.972-9.051 65.282-6.969 84.329 5.435 3.04 1.98 5.26 4.995 6.247 8.486l8.623 30.479c.985 3.482.678 7.204-.865 10.478-10.067 21.357-37.598 40.467-71.849 49.871-13.767 3.783-27.293 5.653-39.786 5.653z" fill="#8cbcff"/></g><g><path d="m123.763 270.423c-12.474 0-25.973-1.85-39.69-5.616-50.036-13.738-82.294-46.487-75.033-76.177 2.446-10.004 9.086-18.435 19.2-24.382 19.454-11.436 50.229-13.005 82.318-4.192 34.251 9.404 61.781 28.514 71.849 49.871 1.465 3.106 1.818 6.622 1.002 9.959l-7.218 29.513c-.844 3.451-2.885 6.49-5.761 8.577-11.33 8.223-27.828 12.447-46.667 12.447z" fill="#9ee2f8"/></g><g><path d="m174.617 216.92c-23.019 0-52.043-18.774-74.871-48.696-14.086-18.464-24.086-38.873-28.156-57.468-4.85-22.152-.873-40.046 11.197-50.386 7.498-6.422 17.327-9.195 28.43-8.021 22.416 2.371 48.533 20.478 69.863 48.437 21.468 28.14 32.823 59.944 29.636 82.999-.435 3.148-1.859 6.078-4.067 8.365l-19.432 20.127c-2.572 2.664-6.039 4.282-9.733 4.544-.943.065-1.901.099-2.867.099z" fill="#8cbcff"/></g><g><path d="m215.941 182.702c-2.675 0-5.325-.716-7.665-2.106-19.338-11.496-36.382-38.611-45.594-72.534-6.174-22.736-7.883-45.59-4.812-64.352 3.703-22.626 14.136-37.645 29.376-42.291 9.097-2.775 18.93-1.461 28.446 3.796 19.641 10.854 37.642 38.952 46.976 73.327 9.403 34.625 8.18 68.533-3.192 88.492-1.99 3.493-5.3 6.041-9.185 7.072l-30.501 8.095c-1.268.335-2.561.501-3.849.501z" fill="#9ee2f8"/></g><path d="m292.381 182.249c1.211.306 2.443.456 3.672.456 2.674 0 5.324-.716 7.662-2.104 19.343-11.493 36.39-38.611 45.603-72.539 6.174-22.737 7.883-45.59 4.812-64.352-3.703-22.626-14.136-37.645-29.376-42.291-9.095-2.773-18.931-1.462-28.446 3.796-15.746 8.702-30.433 28.49-40.45 53.706v112.351c1.785 1.59 3.937 2.752 6.298 3.348z" fill="#8cbcff"/><g><path d="m337.375 216.917c-1.478 0-2.93-.076-4.357-.23-3.6-.39-6.937-2.068-9.396-4.727l-18.482-19.978c-2.079-2.247-3.421-5.076-3.845-8.108-3.228-23.067 8.124-54.904 29.625-83.087 21.331-27.96 47.448-46.067 69.863-48.438 11.102-1.176 20.933 1.6 28.429 8.021 12.071 10.34 16.048 28.234 11.198 50.386-4.071 18.595-14.07 39.004-28.156 57.468-22.949 30.08-51.802 48.693-74.879 48.693z" fill="#6aa9ff"/></g><g><path d="m388.237 270.423c-18.844 0-35.334-4.222-46.667-12.446-2.876-2.087-4.917-5.126-5.761-8.577l-7.218-29.513c-.816-3.337-.463-6.852 1.002-9.959 10.067-21.357 37.598-40.467 71.849-49.871 32.09-8.811 62.865-7.245 82.318 4.192 10.114 5.946 16.754 14.378 19.2 24.382 7.261 29.69-24.997 62.439-75.033 76.177-13.713 3.764-27.219 5.615-39.69 5.615z" fill="#8cbcff"/></g><g><path d="m441.228 357.595c-12.495 0-26.017-1.869-39.787-5.65-32.365-8.887-59.33-26.889-70.374-46.984-1.691-3.078-2.25-6.652-1.576-10.099l6.166-31.572c.728-3.726 2.84-7.036 5.912-9.266 18.834-13.667 51.925-16.285 86.357-6.83 50.036 13.738 82.294 46.487 75.033 76.177-2.446 10.004-9.086 18.435-19.2 24.382-11.105 6.528-25.906 9.842-42.531 9.842z" fill="#6aa9ff"/></g><g><path d="m405.675 459.915c-1.601 0-3.231-.087-4.893-.263-22.416-2.371-48.533-20.478-69.863-48.437-20.859-27.342-32.293-58.519-29.838-81.363.354-3.294 1.788-6.378 4.079-8.77l20.448-21.358c2.693-2.813 6.375-4.469 10.266-4.616 23.537-.908 52.795 17.758 76.379 48.669 14.086 18.464 24.085 38.873 28.156 57.468 4.85 22.152.873 40.046-11.197 50.386-6.375 5.46-14.439 8.284-23.537 8.284z" fill="#8cbcff"/></g><path d="m304.327 331.768c-3.368-2.063-7.415-2.714-11.261-1.815l-30.532 7.154c-2.513.589-4.802 1.813-6.675 3.519v112.454c10.017 25.216 24.704 45.005 40.45 53.706 6.267 3.462 12.672 5.214 18.913 5.214 3.235 0 6.428-.471 9.532-1.418 15.241-4.646 25.674-19.666 29.377-42.292 3.07-18.761 1.361-41.616-4.812-64.352-9.096-33.498-25.917-60.478-44.992-72.17z" fill="#6aa9ff"/><path d="m147.811 256.33c0 59.578 48.47 108.048 108.048 108.048l8-108.379-8-107.719c-59.578.001-108.048 48.472-108.048 108.05z" fill="#ffc649"/><path d="m255.859 148.281v216.098c59.578 0 108.048-48.47 108.048-108.048s-48.469-108.05-108.048-108.05z" fill="#ffa951"/><path d="m210.461 256.33c0 25.032 20.365 45.397 45.398 45.397l5-45.727-5-45.068c-25.033 0-45.398 20.365-45.398 45.398z" fill="#ffdc75"/><path d="m301.257 256.33c0-25.033-20.365-45.398-45.398-45.398v90.795c25.033 0 45.398-20.365 45.398-45.397z" fill="#ffc649"/></g></svg>